PathFileType	4	(X/Y/Z)	./resultDataOpenSim/trcMotMarkerGrf/sub09/qtm-15-07.trc
DataRate	CameraRate	NumFrames	NumMarkers	Units	OrigDataRate	OrigDataStartFrame	OrigNumFrames
250.000000	250.000000	5	24	m	250.000000	176	469
Frame#	Time	L.Toe.Tip			R.Toe.Tip			L.Ankle.Lat			R.Ankle.Lat			L.Ankle.Med			R.Ankle.Med			L.Heel			R.Heel			L.Knee.Lat			R.Knee.Lat			L.Knee.Med			R.Knee.Med			L.Thigh.Upper			R.Thigh.Upper			L.ASIS			R.ASIS			V.Sacral			L.Acromium			R.Acromium			C7			L.Elbow			R.Elbow			L.Wrist.Lat			R.Wrist.Lat
		X1	Y1	Z1	X2	Y2	Z2	X3	Y3	Z3	X4	Y4	Z4	X5	Y5	Z5	X6	Y6	Z6	X7	Y7	Z7	X8	Y8	Z8	X9	Y9	Z9	X10	Y10	Z10	X11	Y11	Z11	X12	Y12	Z12	X13	Y13	Z13	X14	Y14	Z14	X15	Y15	Z15	X16	Y16	Z16	X17	Y17	Z17	X18	Y18	Z18	X19	Y19	Z19	X20	Y20	Z20	X21	Y21	Z21	X22	Y22	Z22	X23	Y23	Z23	X24	Y24	Z24

176	0.7	0.15072861	-0.057854607	0.041225387	-0.60072744	0.059720081	0.09091178	0.011109492	-0.026456619	-0.030620953	-0.65706414	0.20141102	0.12389199	0.011545435	-0.0062164679	0.067167904	-0.59815791	0.19742604	0.043397792	-0.06493209	-0.063839501	-0.00081870347	-0.69333774	0.24031121	0.055344006	0.034196953	0.38945589	-0.079903927	-0.2650322	0.40555767	0.22637337	0.0065440414	0.38873247	0.042626277	-0.23607144	0.36554289	0.10367255	-0.092296033	0.77857066	-0.14362724	-0.19929045	0.79568683	0.21599581	-0.038667459	0.86594575	-0.06808001	-0.075492578	0.86920675	0.16950347	-0.21743407	0.92457252	0.009561855	-0.10362076	1.3292736	-0.13000447	-0.16508284	1.3313674	0.19826252	-0.20182059	1.3738871	0.026938051	-0.2697127	1.0120864	-0.19017316	-0.25942612	0.96593321	0.27191154	-0.19624325	0.76567393	-0.25007121	-0.020110661	0.82240392	0.2645298
177	0.704	0.15082934	-0.058056796	0.040663805	-0.59567106	0.062375503	0.091910411	0.011530879	-0.026103379	-0.031071029	-0.64610736	0.2069724	0.12491789	0.011992886	-0.0056617152	0.066652798	-0.58729021	0.20145321	0.044005677	-0.064673899	-0.06360675	-0.0012557111	-0.68135909	0.24753504	0.056571376	0.043628235	0.3904626	-0.079869044	-0.25322747	0.40290267	0.22823784	0.016065227	0.39191209	0.042357452	-0.22222973	0.36276589	0.10496776	-0.08700996	0.77955847	-0.14525087	-0.19153973	0.79288961	0.21618241	-0.032598263	0.86462514	-0.06881099	-0.06837976	0.86706793	0.16850778	-0.2109071	0.92363875	0.0090670343	-0.094998092	1.3276129	-0.13057057	-0.15902258	1.3295467	0.19790164	-0.19348323	1.3731966	0.02617984	-0.26111305	1.0102057	-0.19121287	-0.25426556	0.96426056	0.27117751	-0.18675538	0.76404681	-0.25078853	-0.015555176	0.81976294	0.26547587
178	0.708	0.15144566	-0.058282506	0.040023233	-0.59007015	0.06507844	0.093180106	0.012324391	-0.025914762	-0.031275994	-0.6348391	0.21243961	0.12559513	0.013062731	-0.0053471346	0.06641258	-0.57608779	0.20557845	0.044559075	-0.064113613	-0.063139699	-0.0014565426	-0.66891047	0.254528	0.05782622	0.052528104	0.39085839	-0.080098874	-0.24057181	0.40052198	0.23007113	0.025292733	0.3942272	0.041897875	-0.20837691	0.36054609	0.10584397	-0.082574001	0.78069685	-0.14704127	-0.18388036	0.78998862	0.21642003	-0.026536992	0.86402488	-0.069656694	-0.061520819	0.86514427	0.16748875	-0.20568154	0.92272734	0.009073095	-0.086312592	1.3260739	-0.13104033	-0.152698	1.327902	0.19758803	-0.18509417	1.3725832	0.025453842	-0.25226878	1.0083165	-0.19227708	-0.24877462	0.96266818	0.27027258	-0.17712994	0.76242597	-0.25150148	-0.011099122	0.81711986	0.26645459
179	0.712	0.15233016	-0.058519052	0.039645466	-0.58368228	0.067910571	0.094779171	0.013381467	-0.025870682	-0.031308078	-0.62316113	0.21768527	0.12596801	0.014520498	-0.0052315479	0.066352916	-0.56450376	0.2096435	0.045066494	-0.063386282	-0.062643963	-0.0015599863	-0.65585285	0.2611358	0.058898109	0.06066692	0.39071505	-0.080469237	-0.2275323	0.3984899	0.23172898	0.034076276	0.39546316	0.041473607	-0.19456823	0.35873521	0.10631694	-0.078714077	0.78171151	-0.14869798	-0.17624267	0.7870744	0.21659508	-0.020385877	0.86408276	-0.070567481	-0.054884476	0.86341847	0.16650613	-0.20136704	0.92179415	0.00934148	-0.077575273	1.3246935	-0.13140917	-0.14605767	1.3264654	0.19726165	-0.17679513	1.3719696	0.024763906	-0.24319636	1.0064743	-0.19335742	-0.24284063	0.96113605	0.26910309	-0.16738714	0.76083553	-0.25217621	-0.006775824	0.81449893	0.2674422
180	0.716	0.15312854	-0.058734636	0.039611589	-0.57610183	0.071051048	0.096713241	0.014452326	-0.025985937	-0.031318499	-0.61101565	0.22266867	0.12614941	0.015913307	-0.005241518	0.066320913	-0.55251381	0.21356012	0.045546777	-0.062723069	-0.062277908	-0.0017307921	-0.6422456	0.26732538	0.059632626	0.067889656	0.39010081	-0.08085497	-0.2142688	0.39673029	0.23306107	0.042360855	0.39563484	0.041237746	-0.18086154	0.35719216	0.10645998	-0.075013442	0.7824846	-0.14995356	-0.16825415	0.78422301	0.21643172	-0.014090232	0.86462698	-0.071481622	-0.048449759	0.86188735	0.16558542	-0.19758922	0.9209748	0.010072024	-0.068778218	1.3234854	-0.13167489	-0.13910622	1.3252662	0.19688328	-0.16863557	1.3713321	0.02410559	-0.23392331	1.0047403	-0.19446494	-0.23690271	0.9597753	0.26782962	-0.15754096	0.75930805	-0.25278519	-0.0026141194	0.81193093	0.26841504
